<?xml version="1.0" standalone="no"?>
<!DOCTYPE svg PUBLIC "-//W3C//DTD SVG 20010904//EN"
 "http://www.w3.org/TR/2001/REC-SVG-20010904/DTD/svg10.dtd">
<svg version="1.0" xmlns="http://www.w3.org/2000/svg"
 width="700.000000pt" height="700.000000pt" viewBox="0 0 700.000000 700.000000"
 preserveAspectRatio="xMidYMid meet">
<metadata>
Created by potrace 1.14, written by Peter Selinger 2001-2017
</metadata>
<g transform="translate(0.000000,700.000000) scale(0.100000,-0.100000)"
fill="#000000" stroke="none">
<path d="M2190 6459 c-166 -15 -197 -20 -355 -54 -83 -17 -231 -70 -340 -120
-91 -42 -238 -127 -263 -152 -7 -7 -18 -13 -23 -13 -22 0 -239 -231 -292 -311
-146 -221 -211 -412 -232 -684 -4 -44 -8 -91 -10 -104 -25 -161 -25 -2708 0
-2907 2 -16 6 -63 9 -104 6 -81 33 -279 40 -301 3 -8 7 -30 10 -49 51 -356
243 -653 546 -848 153 -98 397 -193 585 -226 17 -3 40 -8 53 -10 186 -38 591
-54 762 -31 30 4 66 9 80 10 128 16 281 54 410 102 320 120 620 359 777 618
28 48 88 187 98 230 3 11 11 47 20 80 58 231 86 560 90 1063 l2 282 -26 0
c-45 1 -1354 1 -1406 0 l-50 0 -1 -432 c0 -478 -7 -665 -28 -779 -30 -162 -94
-221 -240 -220 -148 2 -217 64 -241 215 -4 21 -8 47 -10 58 -14 72 -18 422
-18 1743 0 1538 3 1664 34 1800 30 130 106 188 249 187 116 -1 190 -48 215
-136 34 -121 39 -235 39 -911 0 -319 4 -582 8 -586 4 -3 337 -5 740 -5 l733 1
-1 375 c0 418 -10 691 -29 840 -43 333 -78 468 -161 630 -200 388 -665 669
-1217 735 -116 14 -151 16 -312 18 -93 2 -204 0 -245 -4z"/>
<path d="M5074 6430 c9 -41 113 -420 188 -690 12 -41 21 -86 21 -100 0 -14
-24 -117 -52 -230 -29 -113 -54 -212 -56 -220 -2 -8 -22 -89 -45 -180 -44
-174 -45 -178 -55 -225 l-6 -30 209 0 c116 0 213 3 216 6 4 4 8 15 10 25 3 11
9 39 15 64 5 25 12 59 15 75 3 17 14 75 25 130 25 125 29 148 37 208 6 45 22
76 21 39 -1 -14 10 -79 27 -168 2 -12 7 -38 10 -59 4 -20 8 -40 10 -44 2 -3 7
-22 10 -41 3 -19 14 -79 26 -134 11 -54 20 -99 20 -100 0 0 113 -1 250 -1 182
0 250 3 250 11 0 7 -9 40 -19 75 -18 59 -148 522 -157 558 -2 9 -18 67 -36
130 l-32 114 99 391 c54 215 100 398 102 406 4 13 -26 15 -221 14 -124 0 -228
-3 -232 -6 -5 -6 -62 -278 -78 -373 -3 -16 -10 -61 -17 -100 -12 -70 -29 -121
-27 -80 1 20 -8 69 -42 240 -5 28 -12 62 -15 78 -3 15 -7 39 -10 55 -3 15 -10
50 -15 77 -6 28 -12 61 -15 74 -2 13 -7 26 -10 29 -2 3 -100 5 -216 6 l-211 1
6 -25z"/>
<path d="M5034 4453 c4 -17 21 -97 31 -154 3 -13 20 -104 40 -202 19 -98 37
-193 41 -210 3 -18 11 -61 19 -97 8 -36 17 -76 19 -90 2 -14 9 -45 15 -70 5
-25 12 -58 15 -75 7 -36 53 -271 60 -301 2 -12 7 -37 10 -55 10 -60 17 -94 21
-109 3 -8 7 -33 11 -55 3 -22 7 -42 9 -45 6 -10 18 -95 18 -124 -1 -32 -24
-55 -57 -57 -12 -1 -43 -2 -71 -4 -27 -1 -52 -3 -55 -4 -3 0 -5 -61 -5 -133
l1 -133 231 0 c327 -1 439 22 526 109 79 79 109 184 152 531 3 28 8 66 10 85
3 19 7 58 10 85 3 28 7 61 10 75 2 14 7 48 9 75 8 73 30 259 41 345 3 19 7 58
10 85 9 77 45 377 50 405 2 14 6 51 10 83 l6 57 -236 0 -235 0 -1 -32 c-1 -18
-2 -46 -3 -63 -14 -179 -19 -245 -21 -275 -7 -114 -17 -250 -20 -280 -2 -19
-6 -80 -10 -135 -3 -55 -8 -123 -11 -152 -3 -28 -6 -79 -9 -113 -4 -65 -14
-94 -16 -44 0 16 -2 38 -4 49 -2 11 -7 38 -10 60 -3 22 -7 51 -9 65 -3 14 -7
48 -11 75 -3 28 -8 57 -10 65 -2 8 -6 38 -10 65 -7 54 -53 369 -80 550 -10 61
-18 119 -20 130 -1 11 -3 23 -4 28 0 4 -107 7 -237 7 -219 0 -235 -1 -230 -17z"/>
<path d="M5234 2241 c-2 -2 -4 -79 -4 -170 l0 -167 175 1 c96 0 175 0 175 -1
0 -1 -13 -35 -30 -75 -16 -41 -103 -265 -195 -499 l-165 -424 0 -181 0 -180
432 2 c238 1 436 2 441 2 4 1 7 77 7 170 l0 170 -190 -2 c-105 -1 -190 -1
-190 0 0 4 50 134 61 158 4 11 18 45 29 75 11 30 24 64 29 75 11 24 128 325
205 527 l56 146 0 189 0 188 -416 0 c-229 0 -418 -2 -420 -4z"/>
</g>
</svg>
